<?xml version="1.0" standalone="no"?>
<!DOCTYPE svg PUBLIC "-//W3C//DTD SVG 20010904//EN"
 "http://www.w3.org/TR/2001/REC-SVG-20010904/DTD/svg10.dtd">
<svg version="1.0" xmlns="http://www.w3.org/2000/svg"
 width="621.000000pt" height="262.000000pt" viewBox="0 0 621.000000 262.000000"
 preserveAspectRatio="xMidYMid meet">

<g transform="translate(0.000000,262.000000) scale(0.100000,-0.100000)"
fill="#000000" stroke="none">
<path d="M1444 2496 c-282 -150 -891 -512 -909 -540 -10 -17 -15 -149 -20
-632 l-8 -611 24 -22 c43 -41 706 -429 926 -543 l133 -68 36 15 c55 23 233
122 585 326 391 226 435 254 451 293 17 40 19 519 2 536 -8 8 -30 1 -80 -25
-122 -63 -114 -48 -122 -227 -7 -147 -9 -159 -32 -183 -39 -42 -595 -370 -762
-450 l-70 -34 -47 18 c-56 21 -612 338 -726 413 -67 44 -82 59 -93 93 -10 31
-12 139 -10 490 2 248 7 458 12 467 15 33 433 287 714 436 104 54 129 64 158
59 72 -12 787 -425 834 -482 12 -14 16 -64 22 -228 4 -125 11 -214 18 -221 11
-11 82 20 161 70 l42 26 -5 225 c-4 204 -7 226 -25 251 -30 40 -250 174 -811
494 -140 80 -205 112 -235 115 -36 3 -58 -5 -163 -61z"/>
<path d="M1485 2086 c-97 -52 -398 -228 -477 -278 -68 -44 -80 -71 -47 -104
51 -49 560 -340 614 -350 38 -7 126 35 356 169 l146 85 7 -67 c8 -84 8 -424 0
-472 -6 -34 -14 -40 -168 -132 -88 -52 -196 -112 -238 -133 l-78 -38 -47 17
c-62 23 -377 202 -415 236 -38 34 -47 79 -48 226 0 191 1 186 -92 234 -44 23
-85 41 -92 41 -8 0 -16 -17 -20 -37 -8 -51 -6 -521 3 -552 5 -19 49 -50 176
-126 276 -165 497 -285 526 -285 36 0 120 44 434 227 l270 158 3 395 c1 217 0
405 -3 418 -6 23 -74 73 -165 120 l-45 24 -195 -113 c-107 -61 -217 -121 -244
-132 -48 -20 -50 -20 -99 -3 -68 24 -191 100 -195 120 -4 17 109 96 187 130
l43 20 68 -23 68 -23 70 41 c78 47 107 74 97 91 -20 32 -257 160 -296 160 -13
0 -60 -20 -104 -44z"/>
<path d="M3234 1881 c-44 -11 -54 -19 -70 -57 -17 -40 -18 -76 -4 -126 18 -63
24 -65 194 -73 l156 -7 0 -49 0 -49 -180 0 -180 0 0 -41 0 -40 201 3 201 3 24
28 c21 24 24 38 24 101 0 42 -5 79 -12 89 -17 22 -100 37 -209 37 -120 0 -139
8 -139 60 l0 40 180 0 180 0 0 45 0 45 -167 -1 c-93 -1 -182 -4 -199 -8z"/>
<path d="M3690 1845 l0 -45 95 0 95 0 0 -135 0 -135 -95 0 -95 0 0 -45 0 -45
225 0 225 0 0 45 0 45 -85 0 -85 0 0 135 0 135 85 0 85 0 0 45 0 45 -225 0
-225 0 0 -45z"/>
<path d="M4308 1883 c-15 -2 -39 -18 -53 -34 -24 -30 -25 -34 -25 -191 l0
-160 29 -29 29 -29 161 0 161 0 32 29 c32 28 32 31 36 130 l4 101 -136 0 -137
0 3 -37 3 -38 88 -3 87 -3 0 -49 0 -50 -135 0 -135 0 0 140 0 140 180 0 180 0
0 45 0 45 -172 -1 c-95 -1 -185 -4 -200 -6z"/>
<path d="M4844 1884 c-12 -3 -33 -17 -47 -32 -24 -26 -25 -32 -32 -219 l-7
-193 46 0 46 0 0 180 0 180 50 0 50 0 0 -180 0 -180 45 0 45 0 0 180 0 180 45
0 45 0 0 -180 0 -180 46 0 46 0 -7 193 -7 192 -29 30 -29 30 -143 2 c-78 0
-152 -1 -163 -3z"/>
<path d="M5373 1879 c-61 -18 -68 -41 -71 -251 l-4 -188 45 0 45 0 3 84 c2 46
6 86 9 89 3 3 62 7 133 9 l127 4 0 -93 0 -93 45 0 45 0 0 190 0 190 -29 32
-29 33 -144 2 c-79 1 -158 -2 -175 -8z m289 -124 l-4 -46 -132 3 -131 3 -3 43
-3 42 138 0 138 0 -3 -45z"/>
<path d="M3962 1168 l3 -43 88 -3 87 -3 0 -134 0 -135 -91 0 -90 0 3 -42 3
-43 218 -3 217 -2 0 45 0 45 -85 0 -85 0 0 135 0 135 85 0 85 0 0 45 0 45
-221 0 -220 0 3 -42z"/>
<path d="M4502 1168 l3 -43 88 -3 87 -3 0 -180 0 -180 43 3 42 3 3 178 2 177
85 0 85 0 0 45 0 45 -221 0 -220 0 3 -42z"/>
</g>
</svg>
